#!OML:ASF G:\JayActor3\Patient Classification 1\Patient 1\Session 6\male.ASF
:FULLY-SPECIFIED
:DEGREES
926
root 9.49828 16.4131 -18.455 8.51725 -132.606 -4.87704
lowerback 4.5791 -1.76601 5.36403
upperback 9.83123 -3.15793 0.517327
thorax 7.5481 -1.50166 -2.54412
lowerneck 0.7269 0.377827 2.75795
upperneck 24.646 -1.21499 -0.832265
head 7.42162 -0.985686 -0.893696
rclavicle -7.63333e-014 3.89618e-014
rhumerus 10.6307 11.6493 -57.1219
rradius 80.3715
rwrist -7.44445
rhand -30.5892 -9.28234
rfingers 7.12502
rthumb -3.88642 -39.2266
lclavicle -7.63333e-014 3.89618e-014
lhumerus 1.43416 -2.51641 62.2333
lradius 64.39
lwrist 43.3344
lhand -11.7967 4.33076
lfingers 7.12502
lthumb 14.2529 33.8217
rfemur -12.363 9.91128 9.36588
rtibia 37.1739
rfoot -37.4381 -35.2142
rtoes 11.4576
lfemur -16.2105 5.51026 -9.80911
ltibia 30.729
lfoot -2.96112 12.4491
ltoes -14.7378
927
root 9.49649 16.4247 -18.4685 8.58352 -132.27 -4.95206
lowerback 4.71779 -1.85006 5.3469
upperback 9.84136 -3.26993 0.582342
thorax 7.47503 -1.56553 -2.46127
lowerneck 0.694575 0.347811 2.65132
upperneck 24.5408 -1.24676 -0.758786
head 7.39221 -0.999221 -0.851574
rclavicle -4.33351e-014 3.18055e-014
rhumerus 10.6298 12.1232 -57.3245
rradius 80.7082
rwrist -7.52417
rhand -30.5896 -9.21067
rfingers 7.12502
rthumb -3.8868 -39.155
lclavicle -4.33351e-014 3.18055e-014
lhumerus 1.56438 -2.65945 62.4628
lradius 64.5155
lwrist 43.3254
lhand -11.809 4.2092
lfingers 7.12502
lthumb 14.2411 33.7009
rfemur -12.0438 9.89409 9.43788
rtibia 36.8718
rfoot -37.6531 -35.3052
rtoes 11.4832
lfemur -17.1323 5.71843 -9.75948
ltibia 31.9828
lfoot -2.60292 11.5537
ltoes -14.197
928
root 9.49405 16.4335 -18.4809 8.64933 -131.914 -5.00244
lowerback 4.86181 -1.93354 5.32719
upperback 9.84181 -3.37979 0.657147
thorax 7.3895 -1.62904 -2.36568
lowerneck 0.656564 0.307386 2.55098
upperneck 24.4289 -1.29198 -0.685987
head 7.36146 -1.01828 -0.811524
rclavicle -1.1609e-013 8.11041e-014
rhumerus 10.6265 12.5785 -57.4908
rradius 81.0429
rwrist -7.607
rhand -30.5999 -9.14793
rfingers 7.12502
rthumb -3.89677 -39.092
lclavicle -1.1609e-013 8.11041e-014
lhumerus 1.70563 -2.80333 62.6925
lradius 64.6518
lwrist 43.3319
lhand -11.8802 4.06051
lfingers 7.12502
lthumb 14.1724 33.5571
rfemur -11.7588 9.86816 9.51829
rtibia 36.6095
rfoot -37.8551 -35.3851
rtoes 11.4778
lfemur -18.1218 5.93373 -9.70617
ltibia 33.2788
lfoot -2.2997 10.6077
ltoes -13.587
929
root 9.49005 16.4397 -18.4919 8.69944 -131.551 -5.00867
lowerback 5.0071 -2.00909 5.32639
upperback 9.83502 -3.47819 0.7406
thorax 7.29654 -1.68587 -2.27073
lowerneck 0.61197 0.255935 2.46328
upperneck 24.3053 -1.352 -0.609063
head 7.32787 -1.04237 -0.773059
rclavicle 3.02153e-014 8.74653e-015
rhumerus 10.611 13.0056 -57.6214
rradius 81.3809
rwrist -7.68109
rhand -30.6299 -9.08642
rfingers 7.12502
rthumb -3.92578 -39.03
lclavicle 3.02153e-014 8.74653e-015
lhumerus 1.86254 -2.95419 62.9201
lradius 64.8084
lwrist 43.3556
lhand -11.9681 3.90978
lfingers 7.12502
lthumb 14.0877 33.4123
rfemur -11.5088 9.82619 9.61475
rtibia 36.3829
rfoot -38.0299 -35.4428
rtoes 11.445
lfemur -19.1476 6.14275 -9.64058
ltibia 34.5675
lfoot -2.10323 9.63618
ltoes -13.0029
930
root 9.48363 16.4431 -18.5016 8.7284 -131.188 -4.96103
lowerback 5.14277 -2.07534 5.3536
upperback 9.8222 -3.564 0.833058
thorax 7.20339 -1.73458 -2.18174
lowerneck 0.569768 0.194567 2.38226
upperneck 24.1653 -1.42665 -0.519192
head 7.28855 -1.07135 -0.732161
rclavicle 2.98177e-014 -7.95139e-016
rhumerus 10.5886 13.4125 -57.7132
rradius 81.7207
rwrist -7.75246
rhand -30.6732 -9.02042
rfingers 7.12502
rthumb -3.96753 -38.9632
lclavicle 2.98177e-014 -7.95139e-016
lhumerus 2.03187 -3.11141 63.1454
lradius 64.9917
lwrist 43.4006
lhand -12.0602 3.76048
lfingers 7.12502
lthumb 13.999 33.2691
rfemur -11.2913 9.76619 9.7297
rtibia 36.1826
rfoot -38.1781 -35.4827
rtoes 11.3756
lfemur -20.1795 6.32627 -9.55961
ltibia 35.7832
lfoot -2.07293 8.6651
ltoes -12.5502
